<svg width="104" height="155" viewBox="0 0 104 155" fill="none" xmlns="http://www.w3.org/2000/svg">
<path fill-rule="evenodd" clip-rule="evenodd" d="M89.5899 154.295H14.4109C6.48503 154.295 0 147.81 0 139.884V14.4101C0 6.48421 6.48503 0 14.4109 0H89.5899C97.515 0 104 6.48421 104 14.4101V139.884C104 147.81 97.515 154.295 89.5899 154.295Z" fill="#273040"/>
<path fill-rule="evenodd" clip-rule="evenodd" d="M80.2371 132.543H23.7628C16.236 132.543 10.1344 126.44 10.1344 118.914V24.7717C10.1344 17.2441 16.236 11.1425 23.7628 11.1425H80.2371C87.7641 11.1425 93.8665 17.2441 93.8665 24.7717V118.914C93.8665 126.44 87.7641 132.543 80.2371 132.543Z" fill="#BADFFD"/>
<path fill-rule="evenodd" clip-rule="evenodd" d="M57.433 143.567C57.433 146.65 54.9339 149.149 51.8507 149.149C48.7674 149.149 46.2683 146.65 46.2683 143.567C46.2683 140.484 48.7674 137.985 51.8507 137.985C54.9339 137.985 57.433 140.484 57.433 143.567Z" fill="#263042"/>
<path fill-rule="evenodd" clip-rule="evenodd" d="M55.9462 143.567C55.9462 145.829 54.112 147.663 51.8499 147.663C49.5879 147.663 47.7545 145.829 47.7545 143.567C47.7545 141.305 49.5879 139.471 51.8499 139.471C54.112 139.471 55.9462 141.305 55.9462 143.567Z" fill="white"/>
<path fill-rule="evenodd" clip-rule="evenodd" d="M54.5699 143.567C54.5699 145.069 53.3529 146.287 51.8503 146.287C50.3486 146.287 49.1307 145.069 49.1307 143.567C49.1307 142.065 50.3486 140.848 51.8503 140.848C53.3529 140.848 54.5699 142.065 54.5699 143.567Z" fill="#2699FB"/>
<path d="M31.2522 70.1052L44.9834 83.8373L72.4483 56.3732" stroke="#263042" stroke-width="9" stroke-linecap="round" stroke-linejoin="round"/>
</svg>
